<svg width="25" height="24" viewBox="0 0 25 24" fill="none" xmlns="http://www.w3.org/2000/svg">
<path d="M13.8964 4.20926C13.5965 3.92357 13.1218 3.93511 12.8361 4.23504C12.5504 4.53497 12.5619 5.0097 12.8619 5.29539L19.1133 11.25H4.37915C3.96494 11.25 3.62915 11.5858 3.62915 12C3.62915 12.4142 3.96494 12.75 4.37915 12.75H19.1134L12.8619 18.7047C12.5619 18.9904 12.5504 19.4651 12.8361 19.7651C13.1218 20.065 13.5965 20.0765 13.8964 19.7908L21.3154 12.7241C21.4843 12.5632 21.5842 12.358 21.6152 12.1446C21.6244 12.0978 21.6292 12.0495 21.6292 12C21.6292 11.9504 21.6243 11.902 21.6152 11.8551C21.5841 11.6419 21.4842 11.4368 21.3154 11.276L13.8964 4.20926Z" fill="white"/>
</svg>
