<svg width="45" height="45" viewBox="0 0 45 45" fill="none" xmlns="http://www.w3.org/2000/svg">
<path d="M22.5 3.75C30.7843 3.75 37.5 10.4657 37.5 18.75C37.5 23.5277 35.2663 27.7836 31.7863 30.5306L31.878 30.4577L31.8763 41.71C31.8763 42.7398 30.8058 43.4203 29.8733 42.9833L22.501 39.5285L15.1325 42.9832C14.2 43.4204 13.1293 42.7399 13.1293 41.71L13.1263 30.4611C9.69846 27.7163 7.5 23.4899 7.5 18.75C7.5 10.4657 14.2157 3.75 22.5 3.75ZM29.0648 32.2409L29.1403 32.2039C27.1386 33.1937 24.8842 33.75 22.5 33.75C20.3899 33.75 18.3815 33.3143 16.5599 32.5279L15.9409 32.2437L15.9418 39.4975L21.9039 36.7022C22.282 36.5249 22.7194 36.5249 23.0976 36.7021L29.0638 39.498L29.0648 32.2409ZM22.5 6.5625C15.769 6.5625 10.3125 12.019 10.3125 18.75C10.3125 25.481 15.769 30.9375 22.5 30.9375C29.231 30.9375 34.6875 25.481 34.6875 18.75C34.6875 12.019 29.231 6.5625 22.5 6.5625ZM22.929 12.4544L24.64 15.9281L28.4724 16.4819C28.8649 16.5386 29.0217 17.0209 28.7377 17.2977L25.9658 19.9986L26.6202 23.8149C26.6872 24.2057 26.2768 24.5036 25.926 24.3188L22.5 22.5142L19.074 24.3188C18.723 24.5037 18.3125 24.2055 18.3799 23.8145L19.0375 19.9986L16.2625 17.2979C15.9782 17.0212 16.135 16.5387 16.5276 16.4819L20.36 15.9281L22.071 12.4544C22.2463 12.0985 22.7537 12.0985 22.929 12.4544Z" fill="#162F34"/>
</svg>
