<svg width="40" height="40" viewBox="0 0 40 40" fill="none" xmlns="http://www.w3.org/2000/svg">
<path fill-rule="evenodd" clip-rule="evenodd" d="M20.0009 40.0008C8.96248 40.0008 0 31.0391 0 20.0004C0 8.96196 8.96248 0 20.0009 0C31.0394 0 40.0002 8.96196 40.0002 20.0004V40.0008H20.0009ZM29.4153 19.9558C29.4153 24.8003 25.66 28.7337 21.035 28.7337V24.3843C23.2848 24.3843 25.2629 22.3124 25.2629 19.9558H21.035V11.2568H29.4153V19.9558ZM18.9646 11.275C14.3396 11.275 10.5843 15.2085 10.5843 20.053V28.752H18.9646V20.053H14.7367C14.7367 17.6964 16.7148 15.6245 18.9646 15.6245V11.275Z" fill="#FD6222"/>
</svg>
